<?xml version="1.0" encoding="utf-8"?>
<!-- Generator: Adobe Illustrator 27.2.0, SVG Export Plug-In . SVG Version: 6.00 Build 0)  -->
<svg version="1.1" id="Layer_1" xmlns="http://www.w3.org/2000/svg" xmlns:xlink="http://www.w3.org/1999/xlink" x="0px" y="0px"
	 viewBox="0 0 68 67.5" style="enable-background:new 0 0 68 67.5;" xml:space="preserve">
<style type="text/css">
	.st0{fill-rule:evenodd;clip-rule:evenodd;}
	.st1{fill-rule:evenodd;clip-rule:evenodd;fill:#FFFFFF;}
	.st2{fill-rule:evenodd;clip-rule:evenodd;fill:#444444;}
	.st3{fill:none;stroke:#444444;stroke-width:0.5027;stroke-miterlimit:10;}
	.st4{fill:#444444;}
	.st5{font-family:'AvenirNextCondensed-UltraLight';}
	.st6{font-size:11.2128px;}
	.st7{font-family:'Marion-Regular';}
	.st8{font-size:8.7355px;}
	.st9{font-size:4px;}
</style>
<path class="st0" d="M90.9,222.8c-0.2,0-0.5,0-0.7,0c0-0.1,0-0.2,0-0.2c0.2,0,0.5,0,0.7,0C90.9,222.6,90.9,222.7,90.9,222.8z"/>
<path class="st1" d="M34.7,26.2v0.1l0,0C34.7,26.3,34.7,26.3,34.7,26.2L34.7,26.2z"/>
<path class="st1" d="M41.4,26.2v0.1l0,0C41.4,26.3,41.4,26.3,41.4,26.2L41.4,26.2z"/>
<g>
	<path class="st2" d="M34.5,38.3c0.5,0.2,0.7,0.7,0.6,1c-0.1,0.6-0.5,0.8-0.9,0.8s-0.8-0.3-0.9-0.7c-0.1-0.5,0.1-0.9,0.6-1.1h-0.1
		c-0.2,0-0.3-0.1-0.4-0.2c-0.1-0.1-0.1-0.2-0.1-0.3s0-0.1,0-0.2c0-3.4,0-6.8,0-10.2c0-0.1,0-0.2,0.1-0.4c0-0.1,0-0.1,0-0.2
		c0-0.3-0.1-0.5-0.1-0.8c0-0.2-0.1-0.4-0.1-0.5c-0.1-0.2-0.1-0.4-0.2-0.6c-0.1-0.3-0.2-0.6-0.3-0.8c-0.1-0.2-0.2-0.5-0.2-0.7
		c-0.1-0.3-0.2-0.5-0.3-0.8s-0.2-0.5-0.3-0.8c-0.1-0.3-0.3-0.6-0.4-1c-0.1-0.3-0.3-0.6-0.4-0.9c-0.2-0.5-0.4-1-0.6-1.4
		c-0.2-0.3-0.3-0.7-0.4-1s-0.3-0.6-0.4-0.9s-0.2-0.6-0.4-0.9c-0.1-0.2-0.2-0.5-0.3-0.7c-0.1-0.3-0.2-0.6-0.3-0.9
		c-0.1-0.2-0.1-0.4-0.1-0.6c0-0.2-0.1-0.5-0.1-0.7s0-0.4,0-0.6c0-0.2,0-0.4,0.1-0.6c0-0.2,0.1-0.4,0.2-0.6c0.1-0.2,0.2-0.4,0.3-0.7
		c0.1-0.3,0.3-0.6,0.5-0.9c0.2-0.3,0.5-0.6,0.8-0.9C30.5,8.3,30.7,8.1,31,8c0.4-0.2,0.7-0.5,1.1-0.6c0.2-0.1,0.5-0.2,0.7-0.2
		C33,7.1,33.1,7,33.3,7c0.1,0,0.3,0,0.4-0.1c0.3,0,0.5,0,0.8,0c0.2,0,0.4,0,0.6,0.1c0.1,0,0.2,0,0.4,0.1c0.1,0,0.1,0,0.2,0.1
		c0.5,0.1,0.9,0.3,1.3,0.5c0.4,0.2,0.8,0.5,1.2,0.9c0.3,0.3,0.5,0.5,0.8,0.9c0.2,0.3,0.4,0.7,0.6,1.1c0.1,0.2,0.2,0.5,0.2,0.7
		c0.1,0.3,0.1,0.6,0.2,0.9c0,0.1,0,0.3,0,0.4c0,0.2,0,0.4,0,0.6c0,0.3-0.1,0.5-0.1,0.8c0,0.2-0.1,0.3-0.1,0.5c0,0.1-0.1,0.2-0.1,0.4
		c-0.1,0.2-0.1,0.4-0.2,0.6c-0.1,0.2-0.1,0.4-0.2,0.6c-0.1,0.3-0.2,0.6-0.4,0.9c-0.1,0.2-0.2,0.4-0.3,0.6c-0.2,0.3-0.3,0.7-0.5,1
		c-0.1,0.2-0.2,0.5-0.3,0.8c-0.2,0.4-0.3,0.7-0.5,1.1s-0.3,0.7-0.5,1.1s-0.3,0.7-0.5,1.1c-0.1,0.3-0.3,0.7-0.4,1
		c-0.1,0.3-0.2,0.5-0.3,0.8c-0.1,0.2-0.2,0.4-0.2,0.7c-0.1,0.3-0.1,0.5-0.2,0.8c0,0.1-0.1,0.3-0.1,0.5c0,0.1,0,0.3-0.1,0.4
		c0,0.1,0,0.2,0,0.3c0,0.1,0,0.1,0,0.2c0.1,0.1,0.1,0.2,0.1,0.3c0,1.6,0,3.2,0,4.8c0,1.9,0,3.7,0,5.6c0,0.2,0,0.3-0.1,0.4
		c-0.1,0.1-0.2,0.2-0.3,0.2C34.6,38.3,34.5,38.3,34.5,38.3z M34.1,21.2L34.1,21.2c0.1-0.1,0.1-0.2,0.1-0.4c0-0.1,0-0.3,0.1-0.4
		c0-0.1,0.1-0.2,0.1-0.3c0.1-0.2,0.1-0.5,0.2-0.7c0-0.2,0.1-0.3,0.1-0.5s0.1-0.3,0.1-0.5s0.1-0.3,0.1-0.5c0.1-0.2,0.1-0.4,0.1-0.7
		c0.1-0.3,0.1-0.5,0.1-0.8c0-0.1,0-0.2,0.1-0.4c0-0.1,0-0.3,0.1-0.4c0-0.2,0.1-0.4,0.1-0.6l0,0c0-0.2,0.1-0.3,0.1-0.5
		c0-0.1,0-0.3,0-0.4c0-0.2,0-0.4,0-0.6c0-0.2,0-0.4,0-0.6c0-0.4,0-0.8,0-1.2c0-0.3,0-0.6-0.1-0.9c0-0.2,0-0.3-0.1-0.5l0,0
		c0-0.1-0.1-0.3-0.1-0.4c0-0.1,0-0.2-0.1-0.3C35,9.4,35,9.2,34.9,9c0.1-0.2,0.1-0.3,0-0.5c-0.1-0.3-0.2-0.5-0.4-0.7
		c-0.1-0.1-0.2-0.3-0.3-0.4c0-0.1-0.1-0.1-0.1,0C34,7.5,34,7.6,33.9,7.6c-0.2,0.3-0.4,0.6-0.5,0.9c-0.1,0.2-0.2,0.4-0.2,0.7
		c0,0.1-0.1,0.3-0.1,0.4C33,9.8,33,10.1,33,10.3c0,0.1,0,0.3-0.1,0.4c0,0.3-0.1,0.5-0.1,0.8c0,0.4,0,0.8,0,1.1c0,0.2,0,0.3,0,0.5
		c0,0.3,0,0.6,0.1,0.9c0,0.3,0.1,0.6,0.1,0.9c0,0.1,0,0.3,0.1,0.4c0,0.2,0,0.3,0.1,0.5c0,0.3,0.1,0.5,0.1,0.8c0,0,0,0,0,0.1
		s0,0.2,0.1,0.3c0,0.1,0,0.2,0.1,0.4c0,0.1,0,0.2,0,0.2c0,0.1,0.1,0.2,0.1,0.4c0,0.2,0.1,0.4,0.1,0.6c0,0.1,0.1,0.3,0.1,0.5
		c0,0.1,0,0.2,0.1,0.3c0,0.1,0,0.1,0.1,0.2c0,0.1,0.1,0.2,0.1,0.3c0,0.1,0,0.2,0.1,0.3c0,0.2,0.1,0.3,0.1,0.5
		C34,20.9,34.1,21,34.1,21.2z M34.5,25.2L34.5,25.2L34.5,25.2c0.1-0.3,0.1-0.6,0.2-0.8c0-0.1,0-0.2,0.1-0.2c0-0.2,0.1-0.3,0.1-0.5
		s0.1-0.3,0.1-0.5s0.1-0.4,0.1-0.5s0.1-0.3,0.1-0.4s0.1-0.3,0.1-0.4s0.1-0.3,0.1-0.4c0.1-0.2,0.1-0.4,0.2-0.6
		c0.1-0.2,0.1-0.4,0.2-0.6c0-0.1,0.1-0.3,0.1-0.4s0.1-0.3,0.1-0.4s0.1-0.3,0.1-0.4s0.1-0.3,0.1-0.4c0.1-0.2,0.1-0.4,0.2-0.6
		c0.1-0.2,0.1-0.4,0.2-0.6c0.1-0.2,0.1-0.4,0.2-0.7c0.1-0.2,0.1-0.4,0.2-0.6c0-0.1,0.1-0.3,0.1-0.4c0-0.1,0.1-0.3,0.1-0.4
		c0-0.1,0.1-0.3,0.1-0.5s0.1-0.3,0.1-0.5c0.1-0.2,0.1-0.5,0.1-0.7c0-0.8,0-1.5-0.1-2.3c-0.1-0.4-0.2-0.7-0.3-1.1
		C37,10,36.9,9.7,36.8,9.5c-0.2-0.5-0.5-0.9-0.9-1.3c-0.3-0.3-0.6-0.5-1-0.7c-0.1,0-0.2-0.1-0.3-0.1v0.1c0.1,0.1,0.1,0.2,0.2,0.3
		c0.2,0.3,0.3,0.6,0.5,1c0.1,0.1,0.1,0.3,0.1,0.4c0,0.1,0.1,0.3,0.1,0.4c0,0.2,0.1,0.4,0.1,0.6c0,0.2,0.1,0.4,0.1,0.6
		c0,0.3,0.1,0.6,0.1,1c0,0.7,0,1.4-0.1,2c0,0.4-0.1,0.8-0.1,1.2c0,0.3-0.1,0.6-0.1,0.9c0,0,0,0,0,0.1s-0.1,0.3-0.1,0.4
		s0,0.3-0.1,0.4c0,0.2-0.1,0.4-0.1,0.6c0,0.1-0.1,0.3-0.1,0.4C35,18,35,18.3,34.9,18.5c0,0.2-0.1,0.3-0.1,0.5s-0.1,0.3-0.1,0.5
		c-0.1,0.2-0.1,0.5-0.2,0.7c0,0.2-0.1,0.4-0.1,0.6s0,0.4-0.1,0.5c0,0.2-0.1,0.4-0.1,0.7c0,0.2,0,0.4,0,0.6c0,0.4,0,0.7,0,1.1
		c0,0.2,0,0.4,0,0.6c0,0.3,0,0.6,0.1,0.9C34.5,25.1,34.5,25.2,34.5,25.2z M32.9,7.4L32.9,7.4L32.9,7.4c-0.4,0.1-0.6,0.2-0.9,0.3
		c-0.2,0.1-0.5,0.2-0.7,0.4c-0.4,0.3-0.8,0.6-1.2,1c-0.3,0.3-0.5,0.6-0.7,1c-0.3,0.4-0.4,0.9-0.6,1.4c-0.1,0.3-0.1,0.6-0.1,0.8
		c0,0.3,0,0.6,0,0.9c0,0.3,0.1,0.6,0.2,0.9c0.1,0.2,0.1,0.5,0.2,0.7c0.1,0.3,0.2,0.6,0.3,0.8c0.2,0.4,0.3,0.8,0.5,1.2
		c0.2,0.5,0.4,1,0.6,1.4s0.4,0.9,0.6,1.3s0.3,0.7,0.5,1.1c0.1,0.3,0.3,0.7,0.4,1c0.1,0.2,0.2,0.4,0.3,0.6c0.1,0.3,0.3,0.6,0.4,0.9
		c0.1,0.2,0.2,0.5,0.3,0.7s0.1,0.3,0.2,0.5c0,0.1,0.1,0.2,0.1,0.4c0.1,0.2,0.1,0.4,0.2,0.6c0,0.2,0.1,0.3,0.1,0.5
		c0,0.1,0.1,0.3,0.1,0.4c0,0.2,0,0.3,0.1,0.4c0,0,0,0.1,0.1,0.1c0,0,0.1,0,0.1-0.1s0-0.2,0-0.4c0-0.2,0-0.3-0.1-0.5
		c0-0.1,0-0.3-0.1-0.4c0-0.1,0-0.2,0-0.2c0-0.2-0.1-0.4-0.1-0.6s-0.1-0.4-0.1-0.6c-0.1-0.3-0.2-0.6-0.2-1c0-0.1,0-0.2-0.1-0.2
		c0-0.2-0.1-0.3-0.1-0.5c0-0.1-0.1-0.3-0.1-0.4c-0.1-0.2-0.1-0.4-0.2-0.7c0-0.1-0.1-0.3-0.1-0.4s-0.1-0.3-0.1-0.4s-0.1-0.3-0.1-0.4
		c-0.1-0.3-0.2-0.5-0.2-0.8c-0.1-0.2-0.1-0.4-0.2-0.5c0-0.1-0.1-0.3-0.1-0.5c0-0.1-0.1-0.3-0.1-0.4c-0.1-0.2-0.1-0.4-0.2-0.6
		c0-0.1-0.1-0.3-0.1-0.4s-0.1-0.3-0.1-0.4s-0.1-0.3-0.1-0.4c-0.1-0.3-0.2-0.5-0.2-0.8c-0.1-0.2-0.1-0.4-0.2-0.6c0-0.1,0-0.1-0.1-0.2
		c0-0.1-0.1-0.2-0.1-0.3c0-0.2,0-0.3-0.1-0.5c0-0.3,0-0.6,0-0.9c0-0.3,0-0.5,0-0.8c0-0.2,0-0.3,0.1-0.5c0-0.1,0-0.2,0.1-0.3
		c0-0.1,0.1-0.2,0.1-0.3c0.1-0.2,0.1-0.4,0.2-0.6c0.1-0.3,0.2-0.6,0.3-0.9c0.2-0.4,0.4-0.7,0.6-1c0.3-0.4,0.6-0.7,1-1
		C32.9,7.5,32.9,7.4,32.9,7.4z M35.4,7.4C35.4,7.4,35.5,7.4,35.4,7.4C35.5,7.4,35.5,7.5,35.4,7.4c0.3,0.2,0.5,0.4,0.7,0.6
		c0.2,0.2,0.4,0.5,0.6,0.7c0.2,0.3,0.4,0.6,0.5,0.9c0.1,0.3,0.2,0.6,0.3,0.9c0.1,0.2,0.1,0.3,0.1,0.5c0,0.1,0,0.2,0.1,0.3
		c0,0.2,0.1,0.3,0.1,0.5c0,0,0,0,0,0.1c0,0.2,0.1,0.4,0.1,0.6c0,0.4,0,0.7,0,1.1c0,0.2,0,0.3-0.1,0.5c0,0.1,0,0.2-0.1,0.3
		c0,0.1-0.1,0.2-0.1,0.3c0,0.2-0.1,0.3-0.1,0.5c-0.1,0.2-0.1,0.4-0.2,0.6c-0.1,0.2-0.1,0.4-0.2,0.6c0,0.1-0.1,0.3-0.1,0.4
		s-0.1,0.3-0.1,0.4c-0.1,0.2-0.1,0.4-0.2,0.6c0,0.1-0.1,0.2-0.1,0.4c-0.1,0.2-0.1,0.4-0.2,0.5c-0.1,0.2-0.1,0.4-0.2,0.6
		c-0.1,0.2-0.1,0.4-0.2,0.5c0,0.1-0.1,0.3-0.1,0.4s-0.1,0.3-0.1,0.4s-0.1,0.3-0.1,0.4c-0.1,0.2-0.1,0.4-0.2,0.7
		c0,0.1-0.1,0.3-0.1,0.4c0,0.2-0.1,0.3-0.1,0.5c0,0.1-0.1,0.3-0.1,0.4c-0.1,0.2-0.1,0.5-0.2,0.7c0.1,0.3,0,0.5,0,0.8
		c0,0.1,0,0.2-0.1,0.2c0,0.1-0.1,0.2-0.1,0.3c0,0.1,0,0.2-0.1,0.4c0,0.1-0.1,0.3-0.1,0.4c0,0.2-0.1,0.4-0.1,0.6c0,0.1,0,0.2,0,0.3
		v0.1c0,0,0.1,0,0.1-0.1l0,0c0-0.2,0-0.3,0.1-0.5l0,0c0-0.1,0.1-0.2,0.1-0.3c0-0.1,0-0.2,0.1-0.3c0-0.2,0.1-0.3,0.1-0.5
		c0-0.1,0.1-0.3,0.1-0.4c0.1-0.2,0.1-0.3,0.2-0.5c0.1-0.2,0.1-0.4,0.2-0.6c0.1-0.3,0.2-0.6,0.3-0.8c0.1-0.2,0.2-0.4,0.3-0.7
		c0.2-0.4,0.3-0.8,0.5-1.2c0.1-0.3,0.2-0.5,0.4-0.8c0.2-0.4,0.3-0.8,0.5-1.1c0.1-0.3,0.2-0.5,0.4-0.8c0.1-0.3,0.3-0.6,0.4-0.9
		c0.1-0.3,0.2-0.5,0.3-0.8c0.1-0.2,0.2-0.4,0.3-0.7c0.1-0.2,0.2-0.4,0.2-0.6c0.1-0.2,0.1-0.3,0.2-0.5c0-0.1,0.1-0.2,0.1-0.4
		c0-0.1,0.1-0.3,0.1-0.5c0-0.1,0-0.2,0.1-0.3c0-0.2,0.1-0.4,0.1-0.6c0-0.2,0-0.5,0-0.7s-0.1-0.4-0.1-0.7c0-0.2-0.1-0.4-0.2-0.5
		c-0.1-0.3-0.3-0.6-0.4-0.9c-0.2-0.4-0.5-0.7-0.8-1s-0.5-0.5-0.8-0.7c-0.4-0.4-0.7-0.6-1-0.7c-0.2-0.1-0.5-0.2-0.7-0.3
		C35.6,7.4,35.5,7.4,35.4,7.4z M33.9,25c0-0.1,0-0.1,0-0.1c0-0.2,0-0.4,0-0.6s0-0.5,0-0.7s0-0.4,0-0.7c0-0.1,0-0.2,0-0.2
		c0-0.4-0.1-0.7-0.1-1.1c0-0.1,0-0.3-0.1-0.4c0-0.2-0.1-0.5-0.1-0.7s-0.1-0.4-0.1-0.6c-0.1-0.2-0.1-0.5-0.2-0.7
		c-0.1-0.3-0.1-0.6-0.2-0.9c0-0.1,0-0.2-0.1-0.3c0-0.1-0.1-0.2-0.1-0.3c0-0.1,0-0.2-0.1-0.3c0-0.1-0.1-0.3-0.1-0.4s0-0.3-0.1-0.4
		c0-0.2-0.1-0.5-0.1-0.7s0-0.3-0.1-0.5c0-0.3-0.1-0.6-0.1-1c0-0.3,0-0.6-0.1-0.8c0-0.2,0-0.4,0-0.6c0-0.5,0-0.9,0-1.4
		c0-0.3,0-0.6,0.1-0.8c0-0.1,0-0.2,0.1-0.4c0-0.2,0.1-0.4,0.1-0.6c0-0.2,0.1-0.3,0.1-0.5C32.9,9,32.9,8.7,33,8.5s0.2-0.4,0.3-0.6
		c0.1-0.1,0.2-0.3,0.3-0.4c-0.1,0-0.1,0-0.2,0C33,7.8,32.6,8,32.3,8.4c-0.3,0.3-0.5,0.7-0.7,1c-0.1,0.2-0.2,0.4-0.3,0.7
		c-0.1,0.2-0.1,0.5-0.2,0.7C31,11,31,11.2,31,11.4c0,0.1,0,0.2-0.1,0.4c0,0.2-0.1,0.4-0.1,0.6c0,0.5-0.1,1.1,0,1.6
		c0,0.1,0,0.3,0.1,0.4c0,0.2,0.1,0.4,0.1,0.5c0,0.2,0.1,0.3,0.1,0.5c0,0.1,0.1,0.3,0.1,0.4c0,0.1,0.1,0.3,0.1,0.4s0.1,0.3,0.1,0.4
		s0.1,0.3,0.1,0.4c0.1,0.2,0.1,0.5,0.2,0.7s0.1,0.4,0.2,0.6c0,0.1,0.1,0.3,0.1,0.4c0.1,0.2,0.1,0.4,0.2,0.6c0.1,0.3,0.2,0.5,0.2,0.8
		c0,0.1,0.1,0.3,0.1,0.4c0.1,0.2,0.1,0.4,0.2,0.6c0.1,0.3,0.2,0.6,0.3,1c0.1,0.2,0.1,0.4,0.2,0.6c0.1,0.2,0.1,0.5,0.2,0.7
		c0.1,0.3,0.1,0.6,0.2,0.9c0,0.1,0,0.1,0,0.2s0,0.2,0.1,0.3C33.8,24.8,33.8,24.9,33.9,25C33.8,25,33.8,25,33.9,25z M34,38.5
		c-0.3,0.1-0.6,0.5-0.5,0.8c0.1,0.4,0.4,0.7,0.8,0.6c0.4,0,0.7-0.3,0.7-0.7c0.1-0.4-0.2-0.7-0.5-0.8c0,0.1-0.1,0.1-0.2,0.1
		C34.2,38.5,34.2,38.5,34,38.5C34,38.6,34,38.6,34,38.5z M34.2,26.5L34.2,26.5c0,0.1,0,0.2,0,0.2l0,0C34.2,26.6,34.2,26.6,34.2,26.5
		z"/>
	<path class="st2" d="M45,38.7c0.4,0.2,0.5,0.5,0.5,0.8c-0.1,0.5-0.4,0.6-0.7,0.6s-0.6-0.2-0.7-0.5c-0.1-0.4,0.1-0.7,0.4-0.9h-0.1
		c-0.1,0-0.2-0.1-0.3-0.2c0-0.1-0.1-0.1-0.1-0.2c0-0.1,0-0.1,0-0.2c0-2.6,0-5.3,0-7.9c0-0.1,0-0.2,0.1-0.3v-0.1
		c0-0.2-0.1-0.4-0.1-0.6c0-0.1-0.1-0.3-0.1-0.4c0-0.2-0.1-0.3-0.1-0.5c-0.1-0.2-0.1-0.4-0.2-0.6c-0.1-0.2-0.1-0.4-0.2-0.5
		c-0.1-0.2-0.2-0.4-0.2-0.6c-0.1-0.2-0.2-0.4-0.3-0.6s-0.2-0.5-0.3-0.7s-0.2-0.5-0.3-0.7c-0.2-0.4-0.3-0.7-0.5-1.1
		c-0.1-0.3-0.2-0.5-0.3-0.8c-0.1-0.2-0.2-0.4-0.3-0.7c-0.1-0.2-0.2-0.5-0.3-0.7s-0.2-0.4-0.2-0.6c-0.1-0.2-0.1-0.5-0.2-0.7
		c0-0.1-0.1-0.3-0.1-0.4c0-0.2-0.1-0.4-0.1-0.5c0-0.2,0-0.3,0-0.5s0-0.3,0.1-0.5c0-0.2,0.1-0.3,0.1-0.5c0.1-0.2,0.1-0.3,0.2-0.5
		c0.1-0.2,0.2-0.5,0.4-0.7s0.4-0.5,0.6-0.7c0.2-0.2,0.4-0.3,0.6-0.5c0.3-0.2,0.6-0.4,0.9-0.5c0.2-0.1,0.4-0.1,0.6-0.2
		c0.1,0,0.2,0,0.3-0.1c0.1,0,0.2,0,0.3,0c0.2,0,0.4,0,0.6,0c0.1,0,0.3,0,0.4,0.1c0.1,0,0.2,0,0.3,0s0.1,0,0.2,0
		c0.3,0.1,0.7,0.2,1,0.4s0.6,0.4,0.9,0.7c0.2,0.2,0.4,0.4,0.6,0.7c0.2,0.3,0.3,0.5,0.5,0.8c0.1,0.2,0.1,0.4,0.2,0.5
		c0.1,0.2,0.1,0.4,0.1,0.7c0,0.1,0,0.2,0,0.3c0,0.2,0,0.3,0,0.5s-0.1,0.4-0.1,0.6c0,0.1-0.1,0.2-0.1,0.4c0,0.1-0.1,0.2-0.1,0.3
		c-0.1,0.2-0.1,0.3-0.2,0.5c-0.1,0.2-0.1,0.3-0.2,0.5c-0.1,0.2-0.2,0.5-0.3,0.7s-0.1,0.3-0.2,0.5c-0.1,0.3-0.2,0.5-0.4,0.8
		c-0.1,0.2-0.2,0.4-0.3,0.6c-0.1,0.3-0.3,0.6-0.4,0.8c-0.1,0.3-0.3,0.6-0.4,0.8c-0.1,0.3-0.2,0.6-0.4,0.9c-0.1,0.3-0.2,0.5-0.3,0.8
		c-0.1,0.2-0.1,0.4-0.2,0.6c-0.1,0.2-0.1,0.3-0.2,0.5c-0.1,0.2-0.1,0.4-0.2,0.6c0,0.1-0.1,0.2-0.1,0.4c0,0.1,0,0.2,0,0.3
		c0,0.1,0,0.2,0,0.2c0,0.1,0,0.1,0,0.2s0,0.1,0,0.2c0,1.2,0,2.5,0,3.7c0,1.4,0,2.9,0,4.3c0,0.1,0,0.2-0.1,0.3
		C45.3,38.6,45.2,38.7,45,38.7C45.1,38.7,45,38.7,45,38.7z M44.7,25.4L44.7,25.4c0-0.1,0.1-0.2,0.1-0.3c0-0.1,0-0.2,0-0.3
		c0-0.1,0-0.2,0.1-0.3c0-0.2,0.1-0.4,0.1-0.6c0-0.1,0.1-0.2,0.1-0.4c0-0.1,0.1-0.3,0.1-0.4s0.1-0.3,0.1-0.4c0-0.2,0.1-0.3,0.1-0.5
		s0.1-0.4,0.1-0.6c0-0.1,0-0.2,0-0.3c0-0.1,0-0.2,0-0.3c0-0.2,0-0.3,0.1-0.5l0,0c0-0.1,0-0.3,0.1-0.4c0-0.1,0-0.2,0-0.3
		c0-0.2,0-0.3,0-0.5c0-0.1,0-0.3,0-0.4c0-0.3,0-0.6,0-0.9c0-0.2,0-0.5,0-0.7c0-0.1,0-0.3,0-0.4l0,0c0-0.1,0-0.2-0.1-0.3
		c0-0.1,0-0.2,0-0.2c0-0.2-0.1-0.3-0.1-0.5c0-0.1-0.1-0.3-0.2-0.4c-0.1-0.2-0.2-0.4-0.3-0.6c-0.1-0.1-0.2-0.2-0.2-0.3h-0.1
		c0,0.1-0.1,0.1-0.1,0.2c-0.2,0.2-0.3,0.5-0.4,0.7c-0.1,0.2-0.1,0.3-0.2,0.5c0,0.1-0.1,0.2-0.1,0.3c0,0.2-0.1,0.4-0.1,0.6
		c0,0.1,0,0.2,0,0.3c0,0.2-0.1,0.4-0.1,0.6c0,0.3,0,0.6,0,0.9c0,0.1,0,0.2,0,0.4c0,0.2,0,0.5,0.1,0.7c0,0.2,0,0.5,0.1,0.7
		c0,0.1,0,0.2,0,0.3c0,0.1,0,0.3,0,0.4c0,0.2,0.1,0.4,0.1,0.6l0,0c0,0.1,0,0.2,0.1,0.3c0,0.1,0,0.2,0.1,0.3c0,0.1,0,0.1,0,0.2
		s0,0.2,0.1,0.3c0,0.1,0.1,0.3,0.1,0.4s0.1,0.2,0.1,0.4c0,0.1,0,0.2,0,0.2c0,0.1,0,0.1,0,0.2s0,0.2,0.1,0.2c0,0.1,0,0.2,0,0.2
		c0,0.1,0,0.3,0.1,0.4C44.6,25.2,44.7,25.3,44.7,25.4z M45,28.5L45,28.5L45,28.5c0.1-0.2,0.1-0.4,0.2-0.6c0-0.1,0-0.1,0-0.2
		s0.1-0.3,0.1-0.4s0.1-0.3,0.1-0.4s0.1-0.3,0.1-0.4s0.1-0.2,0.1-0.3c0-0.1,0.1-0.2,0.1-0.3c0-0.1,0.1-0.2,0.1-0.3
		c0-0.2,0.1-0.3,0.1-0.5s0.1-0.3,0.1-0.5c0-0.1,0.1-0.2,0.1-0.3c0-0.1,0.1-0.2,0.1-0.3c0-0.1,0.1-0.2,0.1-0.3c0-0.1,0.1-0.2,0.1-0.3
		c0-0.1,0.1-0.3,0.1-0.4s0.1-0.3,0.1-0.4c0.1-0.2,0.1-0.3,0.2-0.5c0-0.1,0.1-0.3,0.1-0.4s0.1-0.2,0.1-0.3c0-0.1,0.1-0.2,0.1-0.3
		c0-0.1,0.1-0.2,0.1-0.4c0-0.1,0.1-0.2,0.1-0.4c0.1-0.2,0.1-0.4,0.1-0.6c0-0.6,0-1.2-0.1-1.8c-0.1-0.3-0.1-0.6-0.2-0.8
		c-0.1-0.2-0.2-0.4-0.3-0.6c-0.2-0.4-0.4-0.7-0.7-1c-0.2-0.2-0.5-0.4-0.8-0.6c-0.1,0-0.1-0.1-0.2-0.1v0.1c0,0.1,0.1,0.1,0.1,0.2
		c0.1,0.2,0.3,0.5,0.4,0.8c0,0.1,0.1,0.2,0.1,0.3c0,0.1,0.1,0.2,0.1,0.3c0,0.2,0.1,0.3,0.1,0.5c0,0.1,0,0.3,0.1,0.4
		c0,0.3,0.1,0.5,0.1,0.8c0,0.5,0,1.1,0,1.6c0,0.3-0.1,0.6-0.1,0.9c0,0.2-0.1,0.4-0.1,0.7l0,0c0,0.1,0,0.2-0.1,0.3c0,0.1,0,0.2,0,0.3
		c0,0.2-0.1,0.3-0.1,0.5c0,0.1,0,0.2-0.1,0.3c0,0.2-0.1,0.4-0.1,0.5s-0.1,0.3-0.1,0.4s-0.1,0.3-0.1,0.4c0,0.2-0.1,0.4-0.1,0.6
		s-0.1,0.3-0.1,0.5c0,0.1,0,0.3,0,0.4c0,0.2,0,0.3-0.1,0.5c0,0.2,0,0.3,0,0.5c0,0.3,0,0.5,0,0.8c0,0.2,0,0.3,0,0.5
		C44.9,28,44.9,28.2,45,28.5L45,28.5z M43.8,14.7L43.8,14.7C43.8,14.7,43.7,14.7,43.8,14.7c-0.3,0.1-0.5,0.1-0.7,0.2
		c-0.2,0.1-0.4,0.2-0.5,0.3c-0.3,0.2-0.7,0.5-0.9,0.8c-0.2,0.2-0.4,0.5-0.5,0.8c-0.2,0.3-0.3,0.7-0.4,1.1c-0.1,0.2-0.1,0.4-0.1,0.7
		c0,0.2,0,0.4,0,0.7c0,0.2,0.1,0.5,0.1,0.7s0.1,0.4,0.2,0.6c0.1,0.2,0.1,0.4,0.2,0.7c0.1,0.3,0.2,0.6,0.4,0.9
		c0.2,0.4,0.3,0.7,0.5,1.1c0.1,0.3,0.3,0.7,0.4,1c0.1,0.3,0.3,0.6,0.4,0.9c0.1,0.3,0.2,0.5,0.3,0.8c0.1,0.2,0.1,0.3,0.2,0.5
		c0.1,0.2,0.2,0.5,0.3,0.7s0.1,0.4,0.2,0.6c0,0.1,0.1,0.2,0.1,0.4c0,0.1,0.1,0.2,0.1,0.3c0,0.2,0.1,0.3,0.1,0.5
		c0,0.1,0.1,0.3,0.1,0.4s0,0.2,0.1,0.3c0,0.1,0,0.2,0,0.4c0,0,0,0,0,0.1c0,0,0,0,0-0.1s0-0.2,0-0.3c0-0.1,0-0.2,0-0.4
		c0-0.1,0-0.2-0.1-0.3c0-0.1,0-0.1,0-0.2s-0.1-0.3-0.1-0.4c0-0.2-0.1-0.3-0.1-0.5c-0.1-0.2-0.1-0.5-0.2-0.7c0-0.1,0-0.1,0-0.2
		s-0.1-0.2-0.1-0.4c0-0.1-0.1-0.2-0.1-0.3c0-0.2-0.1-0.3-0.1-0.5c0-0.1-0.1-0.2-0.1-0.3c0-0.1-0.1-0.2-0.1-0.3
		c0-0.1-0.1-0.2-0.1-0.3c-0.1-0.2-0.1-0.4-0.2-0.6c0-0.1-0.1-0.3-0.1-0.4s-0.1-0.2-0.1-0.4c0-0.1-0.1-0.2-0.1-0.3
		c0-0.2-0.1-0.3-0.1-0.5c0-0.1-0.1-0.2-0.1-0.3c0-0.1-0.1-0.2-0.1-0.3c0-0.1-0.1-0.2-0.1-0.3c-0.1-0.2-0.1-0.4-0.2-0.6
		c0-0.2-0.1-0.3-0.1-0.5c0-0.1,0-0.1,0-0.2s0-0.2-0.1-0.3c0-0.1,0-0.2,0-0.4c0-0.2,0-0.4,0-0.7c0-0.2,0-0.4,0-0.6c0-0.1,0-0.3,0-0.4
		s0-0.1,0-0.2s0-0.2,0.1-0.2c0-0.2,0.1-0.3,0.1-0.5c0.1-0.2,0.2-0.5,0.3-0.7c0.1-0.3,0.3-0.5,0.5-0.8C43.1,15.2,43.4,15,43.8,14.7
		C43.7,14.8,43.8,14.7,43.8,14.7z M45.7,14.7L45.7,14.7C45.8,14.8,45.8,14.8,45.7,14.7c0.2,0.2,0.4,0.3,0.5,0.4
		c0.2,0.2,0.3,0.4,0.5,0.6c0.2,0.2,0.3,0.5,0.4,0.7c0.1,0.2,0.2,0.4,0.2,0.7c0,0.1,0.1,0.3,0.1,0.4s0,0.1,0,0.2s0.1,0.2,0.1,0.4
		c0,0,0,0,0,0.1c0,0.2,0.1,0.3,0.1,0.5c0,0.3,0,0.6,0,0.9c0,0.1,0,0.3,0,0.4s0,0.2,0,0.2c0,0.1,0,0.2-0.1,0.2c0,0.1-0.1,0.3-0.1,0.4
		c0,0.2-0.1,0.3-0.1,0.5s-0.1,0.3-0.1,0.4s-0.1,0.2-0.1,0.3c0,0.1-0.1,0.2-0.1,0.3c0,0.2-0.1,0.3-0.1,0.5c0,0.1-0.1,0.2-0.1,0.3
		c0,0.1-0.1,0.3-0.1,0.4c0,0.2-0.1,0.3-0.1,0.5c0,0.1-0.1,0.3-0.1,0.4s-0.1,0.2-0.1,0.3c0,0.1-0.1,0.2-0.1,0.3
		c0,0.1-0.1,0.2-0.1,0.3c0,0.2-0.1,0.3-0.1,0.5c0,0.1-0.1,0.2-0.1,0.3c0,0.1-0.1,0.2-0.1,0.4c0,0.1-0.1,0.2-0.1,0.4
		c0,0.2-0.1,0.4-0.1,0.5c0,0.2-0.1,0.4-0.1,0.6c0,0.1,0,0.1,0,0.2s0,0.2-0.1,0.3c0,0.1,0,0.2-0.1,0.3c0,0.1,0,0.2-0.1,0.3
		c0,0.1,0,0.3-0.1,0.4c0,0.1,0,0.2,0,0.3v0.1c0,0,0,0,0-0.1l0,0c0-0.1,0-0.3,0-0.4l0,0c0-0.1,0-0.2,0.1-0.3c0-0.1,0-0.2,0.1-0.2
		c0-0.1,0.1-0.3,0.1-0.4s0.1-0.2,0.1-0.3c0-0.1,0.1-0.3,0.1-0.4c0.1-0.2,0.1-0.3,0.2-0.5c0.1-0.2,0.2-0.4,0.3-0.6s0.1-0.3,0.2-0.5
		c0.1-0.3,0.3-0.6,0.4-0.9c0.1-0.2,0.2-0.4,0.3-0.6c0.1-0.3,0.3-0.6,0.4-0.9c0.1-0.2,0.2-0.4,0.3-0.6s0.2-0.5,0.3-0.7
		s0.2-0.4,0.3-0.6s0.1-0.3,0.2-0.5c0.1-0.1,0.1-0.3,0.2-0.5c0.1-0.1,0.1-0.3,0.1-0.4s0.1-0.2,0.1-0.3c0-0.1,0.1-0.2,0.1-0.4
		c0-0.1,0-0.2,0.1-0.3c0-0.2,0.1-0.3,0.1-0.5s0-0.4,0-0.6s0-0.3-0.1-0.5c0-0.1-0.1-0.3-0.1-0.4c-0.1-0.3-0.2-0.5-0.3-0.7
		c-0.2-0.3-0.4-0.6-0.6-0.8c-0.2-0.2-0.4-0.4-0.6-0.5c-0.2-0.1-0.4-0.3-0.7-0.4c-0.2-0.1-0.4-0.1-0.6-0.2
		C45.8,14.7,45.8,14.7,45.7,14.7z M44.5,28.4C44.5,28.3,44.5,28.3,44.5,28.4c0-0.3,0-0.4,0-0.6s0-0.4,0-0.6s0-0.3,0-0.5
		c0-0.1,0-0.1,0-0.2c0-0.3-0.1-0.6-0.1-0.9c0-0.1,0-0.2,0-0.3c0-0.2-0.1-0.4-0.1-0.5s-0.1-0.3-0.1-0.4c0-0.2-0.1-0.4-0.1-0.6
		c-0.1-0.2-0.1-0.5-0.2-0.7c0-0.1,0-0.1,0-0.2s0-0.2-0.1-0.3c0-0.1,0-0.2,0-0.3c0-0.1,0-0.2-0.1-0.3c0-0.1,0-0.2-0.1-0.3
		c0-0.2-0.1-0.4-0.1-0.6c0-0.1,0-0.3,0-0.4c0-0.2-0.1-0.5-0.1-0.7s0-0.4,0-0.6s0-0.3,0-0.5c0-0.4,0-0.7,0-1.1c0-0.2,0-0.4,0-0.7
		c0-0.1,0-0.2,0-0.3c0-0.2,0.1-0.3,0.1-0.5c0-0.1,0.1-0.2,0.1-0.4c0-0.2,0.1-0.3,0.2-0.5c0.1-0.2,0.1-0.3,0.2-0.5
		c0.1-0.1,0.1-0.2,0.2-0.3c-0.1,0-0.1,0-0.1,0c-0.3,0.2-0.6,0.4-0.8,0.6c-0.2,0.2-0.4,0.5-0.5,0.8c-0.1,0.2-0.2,0.3-0.2,0.5
		c-0.1,0.2-0.1,0.4-0.2,0.5c0,0.1-0.1,0.3-0.1,0.5c0,0.1,0,0.2,0,0.3c0,0.2-0.1,0.3-0.1,0.5c0,0.4,0,0.8,0,1.2c0,0.1,0,0.2,0,0.3
		c0,0.1,0.1,0.3,0.1,0.4s0.1,0.2,0.1,0.4c0,0.1,0.1,0.2,0.1,0.3c0,0.1,0.1,0.2,0.1,0.3c0,0.1,0.1,0.2,0.1,0.3c0,0.1,0.1,0.2,0.1,0.3
		c0.1,0.2,0.1,0.4,0.2,0.6c0,0.1,0.1,0.3,0.1,0.4s0.1,0.2,0.1,0.3c0,0.2,0.1,0.3,0.1,0.4c0.1,0.2,0.1,0.4,0.2,0.6
		c0,0.1,0.1,0.2,0.1,0.3c0,0.2,0.1,0.3,0.1,0.5c0.1,0.2,0.1,0.5,0.2,0.7c0,0.2,0.1,0.3,0.1,0.5s0.1,0.4,0.1,0.5
		c0.1,0.2,0.1,0.5,0.2,0.7c0,0.1,0,0.1,0,0.2s0,0.2,0,0.2C44.4,28.2,44.5,28.3,44.5,28.4C44.5,28.3,44.5,28.4,44.5,28.4z M44.6,38.9
		c-0.3,0.1-0.4,0.4-0.4,0.6c0.1,0.3,0.3,0.5,0.6,0.5s0.5-0.2,0.5-0.5s-0.2-0.6-0.4-0.6c0,0.1-0.1,0.1-0.1,0.1L44.6,38.9
		C44.6,38.9,44.6,38.9,44.6,38.9z M44.8,29.5L44.8,29.5c0,0.1,0,0.1,0,0.2l0,0C44.8,29.6,44.8,29.6,44.8,29.5z"/>
	<path class="st2" d="M23.9,38.7c0.4,0.2,0.5,0.5,0.5,0.8c-0.1,0.5-0.4,0.6-0.7,0.6c-0.3,0-0.6-0.2-0.7-0.5
		c-0.1-0.4,0.1-0.7,0.4-0.9c0,0,0,0-0.1,0s-0.2-0.1-0.3-0.2c0-0.1-0.1-0.1-0.1-0.2c0-0.1,0-0.1,0-0.2c0-2.6,0-5.3,0-7.9
		c0-0.1,0-0.2,0.1-0.3v-0.1c0-0.2-0.1-0.4-0.1-0.6c0-0.1,0-0.3-0.1-0.4c0-0.2-0.1-0.3-0.1-0.5c-0.1-0.2-0.1-0.4-0.2-0.6
		s-0.1-0.4-0.2-0.5c-0.1-0.2-0.2-0.4-0.2-0.6c-0.1-0.2-0.2-0.4-0.3-0.6c-0.1-0.2-0.2-0.5-0.3-0.7c-0.1-0.2-0.2-0.5-0.3-0.7
		c-0.2-0.4-0.3-0.7-0.5-1.1c-0.1-0.3-0.2-0.5-0.3-0.8c-0.1-0.2-0.2-0.4-0.3-0.7c-0.1-0.2-0.2-0.5-0.3-0.7c-0.1-0.2-0.1-0.4-0.2-0.6
		s-0.1-0.5-0.2-0.7c0-0.1-0.1-0.3-0.1-0.4c0-0.2-0.1-0.4-0.1-0.5c0-0.2,0-0.3,0-0.5s0-0.3,0.1-0.5c0-0.2,0.1-0.3,0.1-0.5
		c0.1-0.2,0.1-0.3,0.2-0.5s0.2-0.5,0.4-0.7c0.2-0.2,0.4-0.5,0.6-0.7s0.4-0.3,0.6-0.5c0.3-0.2,0.6-0.4,0.9-0.5
		c0.2-0.1,0.4-0.1,0.6-0.2c0.1,0,0.2,0,0.3-0.1c0.1,0,0.2,0,0.3,0c0.2,0,0.4,0,0.6,0c0.1,0,0.3,0,0.4,0.1c0.1,0,0.2,0,0.3,0
		c0.1,0,0.1,0,0.2,0c0.4,0.1,0.7,0.2,1,0.4s0.7,0.4,0.9,0.7c0.2,0.2,0.4,0.4,0.6,0.7c0.2,0.3,0.3,0.5,0.5,0.8
		c0.1,0.2,0.1,0.4,0.2,0.5c0.1,0.2,0.1,0.4,0.1,0.7c0,0.1,0,0.2,0,0.3c0,0.2,0,0.3,0,0.5S28,19.5,28,19.7c0,0.1-0.1,0.2-0.1,0.4
		c0,0.1-0.1,0.2-0.1,0.3c-0.1,0.2-0.1,0.3-0.2,0.5s-0.1,0.3-0.2,0.5s-0.2,0.5-0.3,0.7c-0.1,0.2-0.1,0.3-0.2,0.5
		c-0.1,0.3-0.2,0.5-0.4,0.8c-0.1,0.2-0.2,0.4-0.3,0.6c-0.1,0.3-0.3,0.6-0.4,0.8c-0.1,0.3-0.2,0.6-0.4,0.8c-0.1,0.3-0.2,0.6-0.4,0.9
		c-0.1,0.3-0.2,0.5-0.3,0.8c-0.1,0.2-0.1,0.4-0.2,0.6s-0.1,0.3-0.2,0.5s-0.1,0.4-0.2,0.6c0,0.1-0.1,0.2-0.1,0.4c0,0.1,0,0.2,0,0.3
		c0,0.1,0,0.2,0,0.2c0,0.1,0,0.1,0,0.2s0,0.1,0,0.2c0,1.2,0,2.5,0,3.7c0,1.4,0,2.9,0,4.3c0,0.1,0,0.2-0.1,0.3
		C24.2,38.6,24.1,38.7,23.9,38.7L23.9,38.7z M23.5,25.4C23.6,25.4,23.6,25.4,23.5,25.4c0-0.1,0.1-0.2,0.1-0.3c0-0.1,0-0.2,0-0.3
		c0-0.1,0-0.2,0.1-0.3c0-0.2,0.1-0.4,0.1-0.6c0-0.1,0.1-0.2,0.1-0.4c0-0.1,0.1-0.3,0.1-0.4s0.1-0.3,0.1-0.4c0-0.2,0.1-0.3,0.1-0.5
		s0.1-0.4,0.1-0.6c0-0.1,0-0.2,0-0.3c0-0.1,0-0.2,0-0.3c0-0.2,0-0.3,0.1-0.5l0,0c0-0.1,0-0.3,0.1-0.4c0-0.1,0-0.2,0-0.3
		c0-0.2,0-0.3,0-0.5c0-0.1,0-0.3,0-0.4c0-0.3,0-0.6,0-0.9c0-0.2,0-0.5,0-0.7c0-0.1,0-0.3,0-0.4l0,0c0-0.1,0-0.2-0.1-0.3
		c0-0.1,0-0.2,0-0.2c0-0.2-0.1-0.3-0.1-0.5c-0.1-0.1-0.1-0.3-0.2-0.4c-0.1-0.2-0.2-0.4-0.3-0.6c-0.1-0.1-0.2-0.2-0.2-0.3h-0.1
		c0,0.1-0.1,0.1-0.1,0.2c-0.2,0.2-0.3,0.5-0.4,0.7s-0.1,0.3-0.2,0.5c0,0.1-0.1,0.2-0.1,0.3c0,0.2-0.1,0.4-0.1,0.6c0,0.1,0,0.2,0,0.3
		c0,0.2-0.1,0.4-0.1,0.6c0,0.3,0,0.6,0,0.9c0,0.1,0,0.2,0,0.4c0,0.2,0,0.5,0.1,0.7c0,0.2,0,0.5,0.1,0.7c0,0.1,0,0.2,0,0.3
		c0,0.1,0,0.3,0,0.4c0,0.2,0.1,0.4,0.1,0.6l0,0c0,0.1,0,0.2,0.1,0.3c0,0.1,0,0.2,0.1,0.3c0,0.1,0,0.1,0,0.2s0,0.2,0.1,0.3
		c0,0.1,0.1,0.3,0.1,0.4s0.1,0.2,0.1,0.4c0,0.1,0,0.2,0,0.2c0,0.1,0,0.1,0,0.2s0,0.2,0.1,0.2c0,0.1,0,0.2,0,0.2
		c0,0.1,0.1,0.3,0.1,0.4C23.5,25.2,23.5,25.3,23.5,25.4z M23.8,28.5C23.8,28.5,23.9,28.5,23.8,28.5C23.9,28.5,23.9,28.5,23.8,28.5
		c0.1-0.2,0.1-0.4,0.2-0.6c0-0.1,0-0.1,0-0.2s0.1-0.3,0.1-0.4s0.1-0.3,0.1-0.4s0.1-0.3,0.1-0.4s0.1-0.2,0.1-0.3
		c0-0.1,0.1-0.2,0.1-0.3c0-0.1,0.1-0.2,0.1-0.3c0-0.2,0.1-0.3,0.1-0.5s0.1-0.3,0.1-0.5c0-0.1,0.1-0.2,0.1-0.3c0-0.1,0.1-0.2,0.1-0.3
		c0-0.1,0.1-0.2,0.1-0.3c0-0.1,0.1-0.2,0.1-0.3c0-0.1,0.1-0.3,0.1-0.4s0.1-0.3,0.1-0.4c0.1-0.2,0.1-0.3,0.2-0.5
		c0-0.1,0.1-0.3,0.1-0.4s0.1-0.2,0.1-0.3c0-0.1,0.1-0.2,0.1-0.3c0-0.1,0.1-0.2,0.1-0.4c0-0.1,0.1-0.2,0.1-0.4
		c0.1-0.2,0.1-0.4,0.1-0.6c0-0.6,0-1.2-0.1-1.8c-0.1-0.3-0.1-0.6-0.2-0.8c-0.1-0.2-0.2-0.4-0.3-0.6c-0.2-0.4-0.4-0.7-0.7-1
		c-0.2-0.2-0.5-0.4-0.8-0.6c-0.1,0-0.1-0.1-0.2-0.1v0.1c0,0.1,0.1,0.1,0.1,0.2c0.1,0.2,0.3,0.5,0.4,0.8c0,0.1,0.1,0.2,0.1,0.3
		c0,0.1,0.1,0.2,0.1,0.3c0,0.2,0.1,0.3,0.1,0.5c0,0.1,0,0.3,0.1,0.4c0,0.3,0.1,0.5,0.1,0.8c0,0.5,0,1.1,0,1.6c0,0.3-0.1,0.6-0.1,0.9
		c0,0.2-0.1,0.4-0.1,0.7l0,0c0,0.1,0,0.2-0.1,0.3c0,0.1,0,0.2,0,0.3c0,0.2-0.1,0.3-0.1,0.5c0,0.1,0,0.2-0.1,0.3
		c0,0.2-0.1,0.4-0.1,0.5s-0.1,0.3-0.1,0.4s-0.1,0.3-0.1,0.4c0,0.2-0.1,0.4-0.1,0.6s-0.1,0.3-0.1,0.5c0,0.1,0,0.3,0,0.4
		c0,0.2,0,0.3-0.1,0.5c0,0.2,0,0.3,0,0.5c0,0.3,0,0.5,0,0.8c0,0.2,0,0.3,0,0.5C23.8,28,23.8,28.2,23.8,28.5L23.8,28.5z M22.7,14.7
		L22.7,14.7C22.6,14.7,22.6,14.7,22.7,14.7c-0.3,0.1-0.5,0.1-0.7,0.2c-0.2,0.1-0.4,0.2-0.5,0.3c-0.3,0.2-0.7,0.5-0.9,0.8
		c-0.2,0.2-0.4,0.5-0.5,0.8c-0.2,0.3-0.3,0.7-0.4,1.1c-0.1,0.2-0.1,0.4-0.1,0.7c0,0.2,0,0.4,0,0.7c0,0.2,0.1,0.5,0.1,0.7
		s0.1,0.4,0.2,0.6s0.1,0.4,0.2,0.7c0.1,0.3,0.2,0.6,0.4,0.9c0.2,0.4,0.3,0.7,0.5,1.1c0.1,0.3,0.3,0.7,0.4,1s0.3,0.6,0.4,0.9
		s0.2,0.5,0.3,0.8c0.1,0.2,0.1,0.3,0.2,0.5s0.2,0.5,0.3,0.7c0.1,0.2,0.1,0.4,0.2,0.6c0,0.1,0.1,0.2,0.1,0.4c0,0.1,0.1,0.2,0.1,0.3
		c0,0.2,0.1,0.3,0.1,0.5c0,0.1,0.1,0.3,0.1,0.4s0,0.2,0.1,0.3c0,0.1,0,0.2,0,0.4c0,0,0,0,0,0.1c0,0,0,0,0-0.1s0-0.2,0-0.3
		c0-0.1,0-0.2-0.1-0.4c0-0.1,0-0.2,0-0.3c0-0.1,0-0.1,0-0.2s-0.1-0.3-0.1-0.4c0-0.2-0.1-0.3-0.1-0.5c-0.1-0.2-0.1-0.5-0.2-0.7
		c0-0.1,0-0.1,0-0.2s-0.1-0.2-0.1-0.4c0-0.1-0.1-0.2-0.1-0.3c0-0.2-0.1-0.3-0.1-0.5c0-0.1-0.1-0.2-0.1-0.3c0-0.1-0.1-0.2-0.1-0.3
		c0-0.1-0.1-0.2-0.1-0.3c-0.1-0.6-0.2-0.8-0.2-1c0-0.1-0.1-0.3-0.1-0.4s-0.1-0.2-0.1-0.4c0-0.1-0.1-0.2-0.1-0.3
		c0-0.2-0.1-0.3-0.1-0.5c0-0.1-0.1-0.2-0.1-0.3c0-0.1-0.1-0.2-0.1-0.3c0-0.1-0.1-0.2-0.1-0.3c-0.1-0.2-0.1-0.4-0.2-0.6
		c0-0.2-0.1-0.3-0.1-0.5c0-0.1,0-0.1,0-0.2s0-0.2-0.1-0.3c0-0.1,0-0.2,0-0.4c0-0.2,0-0.4,0-0.7c0-0.2,0-0.4,0-0.6c0-0.1,0-0.3,0-0.4
		s0-0.1,0-0.2s0-0.2,0.1-0.2c0-0.2,0.1-0.3,0.1-0.5c0.1-0.2,0.2-0.5,0.3-0.7c0.1-0.3,0.3-0.5,0.5-0.8C22,15.2,22.3,15,22.7,14.7
		C22.6,14.8,22.6,14.7,22.7,14.7z M24.6,14.7L24.6,14.7C24.6,14.8,24.7,14.8,24.6,14.7c0.2,0.2,0.4,0.3,0.5,0.4
		c0.2,0.2,0.3,0.4,0.5,0.6c0.2,0.2,0.3,0.5,0.4,0.7c0.1,0.2,0.2,0.4,0.2,0.7c0,0.1,0.1,0.3,0.1,0.4s0,0.1,0,0.2s0.1,0.2,0.1,0.4
		c0,0,0,0,0,0.1c0,0.2,0.1,0.3,0.1,0.5c0,0.3,0,0.6,0,0.9c0,0.1,0,0.3,0,0.4s0,0.2,0,0.2c0,0.1,0,0.2-0.1,0.2c0,0.1-0.1,0.3-0.1,0.4
		c0,0.2-0.1,0.3-0.1,0.5s-0.1,0.3-0.1,0.4S26,21.9,26,22c0,0.1-0.1,0.2-0.1,0.3c0,0.2-0.1,0.3-0.1,0.5c0,0.1-0.1,0.2-0.1,0.3
		c0,0.1-0.1,0.3-0.1,0.4c-0.1,0.2-0.1,0.3-0.1,0.5c0,0.1-0.1,0.3-0.1,0.4s-0.1,0.2-0.1,0.3c0,0.1-0.1,0.2-0.1,0.3
		c0,0.1-0.1,0.2-0.1,0.3c0,0.2-0.1,0.3-0.1,0.5c0,0.1-0.1,0.2-0.1,0.3c0,0.1-0.1,0.2-0.1,0.4c0,0.1-0.1,0.2-0.1,0.4
		c0,0.2-0.1,0.4-0.1,0.5c0,0.2-0.1,0.4-0.1,0.6c0,0.1,0,0.1,0,0.2s0,0.2-0.1,0.3c0,0.1,0,0.2,0,0.3c0,0.1,0,0.2-0.1,0.3
		c0,0.1,0,0.3-0.1,0.4c0,0.1,0,0.2,0,0.3v0.1c0,0,0,0,0-0.1l0,0c0-0.1,0-0.3,0-0.4l0,0c0-0.1,0-0.2,0.1-0.3c0-0.1,0-0.2,0.1-0.2
		c0-0.1,0.1-0.3,0.1-0.4s0.1-0.2,0.1-0.3c0-0.1,0.1-0.3,0.1-0.4c0.1-0.2,0.1-0.3,0.2-0.5s0.2-0.4,0.3-0.6c0.1-0.2,0.1-0.3,0.2-0.5
		c0.1-0.3,0.3-0.6,0.4-0.9c0.1-0.2,0.2-0.4,0.3-0.6c0.1-0.3,0.3-0.6,0.4-0.9c0.1-0.2,0.2-0.4,0.3-0.6c0.1-0.2,0.2-0.5,0.3-0.7
		c0.1-0.2,0.2-0.4,0.3-0.6c0.1-0.2,0.1-0.3,0.2-0.5c0.1-0.1,0.1-0.3,0.2-0.5c0-0.1,0.1-0.3,0.1-0.4s0.1-0.2,0.1-0.3
		c0-0.1,0.1-0.2,0.1-0.4c0-0.1,0-0.2,0-0.3c0-0.2,0.1-0.3,0.1-0.5s0-0.4,0-0.6s0-0.3-0.1-0.5c0-0.1-0.1-0.3-0.1-0.4
		c-0.1-0.3-0.2-0.5-0.3-0.7c-0.2-0.3-0.4-0.6-0.6-0.8s-0.4-0.4-0.6-0.5s-0.4-0.3-0.7-0.4c-0.2-0.1-0.4-0.1-0.6-0.2
		C24.7,14.7,24.7,14.7,24.6,14.7z M23.4,28.4C23.4,28.3,23.4,28.3,23.4,28.4c0-0.3,0-0.4,0-0.6s0-0.4,0-0.6s0-0.3,0-0.5
		c0-0.1,0-0.1,0-0.2c0-0.3-0.1-0.6-0.1-0.9c0-0.1,0-0.2,0-0.3c0-0.2-0.1-0.4-0.1-0.5s-0.1-0.3-0.1-0.4c0-0.2-0.1-0.4-0.1-0.6
		c-0.1-0.2-0.1-0.5-0.2-0.7c0-0.1,0-0.1,0-0.2s0-0.2-0.1-0.3c0-0.1,0-0.2,0-0.3c0-0.1,0-0.2-0.1-0.3c0-0.1,0-0.2-0.1-0.3
		c0-0.2-0.1-0.4-0.1-0.6c0-0.1,0-0.3,0-0.4c0-0.2-0.1-0.5-0.1-0.7s0-0.4,0-0.6s0-0.3,0-0.5c0-0.4,0-0.7,0-1.1c0-0.2,0-0.4,0.1-0.7
		c0-0.1,0-0.2,0-0.3c0-0.2,0.1-0.3,0.1-0.5c0-0.1,0.1-0.2,0.1-0.4c0.1-0.2,0.1-0.3,0.2-0.5s0.1-0.3,0.2-0.5c0.1-0.1,0.1-0.2,0.2-0.3
		c-0.1,0-0.1,0-0.1,0c-0.3,0.2-0.6,0.4-0.8,0.6c-0.2,0.2-0.4,0.5-0.6,0.8c-0.1,0.2-0.2,0.3-0.2,0.5c-0.1,0.2-0.1,0.4-0.2,0.5
		c0,0.1-0.1,0.3-0.1,0.5c0,0.1,0,0.2,0,0.3c0,0.2-0.1,0.3-0.1,0.5c0,0.4,0,0.8,0,1.2c0,0.1,0,0.2,0,0.3c0,0.1,0.1,0.3,0.1,0.4
		s0.1,0.2,0.1,0.4c0,0.1,0.1,0.2,0.1,0.3c0,0.1,0.1,0.2,0.1,0.3c0,0.1,0.1,0.2,0.1,0.3c0,0.1,0.1,0.2,0.1,0.3
		c0.1,0.2,0.1,0.4,0.2,0.6c0,0.1,0.1,0.3,0.1,0.4s0.1,0.2,0.1,0.3c0,0.2,0.1,0.3,0.1,0.4c0.1,0.2,0.1,0.4,0.2,0.6
		c0,0.1,0.1,0.2,0.1,0.3c0,0.2,0.1,0.3,0.1,0.5c0.1,0.2,0.1,0.5,0.2,0.7c0,0.2,0.1,0.3,0.1,0.5s0.1,0.4,0.1,0.5
		c0.1,0.2,0.1,0.5,0.2,0.7c0,0.1,0,0.1,0,0.2s0,0.2,0,0.2C23.3,28.2,23.3,28.3,23.4,28.4C23.3,28.3,23.4,28.4,23.4,28.4z M23.4,38.9
		C23.1,39,23,39.3,23,39.5c0.1,0.3,0.3,0.5,0.6,0.5c0.3,0,0.5-0.2,0.5-0.5s-0.2-0.6-0.4-0.6c0,0.1-0.1,0.1-0.1,0.1h-0.1
		C23.5,38.9,23.5,38.9,23.4,38.9z M23.6,29.5L23.6,29.5c0,0.1,0,0.1,0,0.2l0,0C23.6,29.6,23.6,29.6,23.6,29.5z"/>
</g>
<path class="st1" d="M28,26.2v0.1l0,0C28,26.3,28,26.3,28,26.2L28,26.2z"/>
<line class="st3" x1="21.1" y1="63.5" x2="48.2" y2="63.5"/>
<text transform="matrix(0.8159 0 0 1 21.4093 53.1517)" class="st4 st5 st6">CODER’S</text>
<text transform="matrix(0.9623 0 0 1 21.8013 60.1309)" class="st4 st7 st8">kitchen</text>
<text transform="matrix(1.3975 0 0 1 31.5209 44.2383)" class="st4 st5 st9">the</text>
</svg>
